<svg width="68" height="12" viewBox="0 0 68 12" fill="none" xmlns="http://www.w3.org/2000/svg">
    <path d="M0.662 11V0.569999H7.27V1.83H2.034V5.204H6.78V6.464H2.034V11H0.662ZM10.4993 11.168C10.0046 11.168 9.56596 11.0793 9.1833 10.902C8.80996 10.7153 8.51596 10.4633 8.3013 10.146C8.08663 9.81933 7.9793 9.446 7.9793 9.026C7.9793 8.62467 8.0633 8.26533 8.2313 7.948C8.40863 7.62133 8.6793 7.346 9.0433 7.122C9.41663 6.898 9.8833 6.73933 10.4433 6.646L13.2433 6.184V7.276L10.7373 7.696C10.252 7.78 9.8973 7.934 9.6733 8.158C9.45863 8.382 9.3513 8.65733 9.3513 8.984C9.3513 9.292 9.47263 9.54867 9.7153 9.754C9.9673 9.95933 10.28 10.062 10.6533 10.062C11.1293 10.062 11.54 9.964 11.8853 9.768C12.24 9.56267 12.5153 9.28733 12.7113 8.942C12.9166 8.59667 13.0193 8.214 13.0193 7.794V5.876C13.0193 5.46533 12.8653 5.134 12.5573 4.882C12.2586 4.62067 11.862 4.49 11.3673 4.49C10.938 4.49 10.5553 4.602 10.2193 4.826C9.89263 5.04067 9.64996 5.33 9.4913 5.694L8.3573 5.106C8.4973 4.76067 8.7213 4.45267 9.0293 4.182C9.3373 3.902 9.69663 3.68267 10.1073 3.524C10.518 3.36533 10.9473 3.286 11.3953 3.286C11.974 3.286 12.4826 3.398 12.9213 3.622C13.36 3.83667 13.7006 4.14 13.9433 4.532C14.1953 4.91467 14.3213 5.36267 14.3213 5.876V11H13.0473V9.572L13.2853 9.656C13.1266 9.95467 12.912 10.216 12.6413 10.44C12.3706 10.664 12.0533 10.8413 11.6893 10.972C11.3253 11.1027 10.9286 11.168 10.4993 11.168ZM19.84 11.168C19.1027 11.168 18.4447 10.9953 17.866 10.65C17.2967 10.3047 16.8487 9.83333 16.522 9.236C16.1954 8.63867 16.032 7.96667 16.032 7.22C16.032 6.464 16.1954 5.792 16.522 5.204C16.8487 4.616 17.2967 4.14933 17.866 3.804C18.4447 3.45867 19.1027 3.286 19.84 3.286C20.3347 3.286 20.7967 3.37467 21.226 3.552C21.6554 3.72933 22.0334 3.96733 22.36 4.266C22.6867 4.56467 22.9247 4.91467 23.074 5.316L21.912 5.876C21.7347 5.484 21.464 5.16667 21.1 4.924C20.736 4.672 20.316 4.546 19.84 4.546C19.3827 4.546 18.9674 4.66267 18.594 4.896C18.23 5.12933 17.9407 5.44667 17.726 5.848C17.5114 6.24933 17.404 6.71133 17.404 7.234C17.404 7.738 17.5114 8.19533 17.726 8.606C17.9407 9.00733 18.23 9.32467 18.594 9.558C18.9674 9.79133 19.3827 9.908 19.84 9.908C20.316 9.908 20.736 9.78667 21.1 9.544C21.464 9.292 21.7347 8.96067 21.912 8.55L23.074 9.138C22.9247 9.53 22.6867 9.88 22.36 10.188C22.0334 10.4867 21.6554 10.7247 21.226 10.902C20.7967 11.0793 20.3347 11.168 19.84 11.168ZM28.2476 11.168C27.5196 11.168 26.8709 10.9953 26.3016 10.65C25.7322 10.3047 25.2842 9.83333 24.9576 9.236C24.6309 8.62933 24.4676 7.95267 24.4676 7.206C24.4676 6.45 24.6262 5.778 24.9436 5.19C25.2702 4.602 25.7089 4.14 26.2596 3.804C26.8196 3.45867 27.4449 3.286 28.1356 3.286C28.6956 3.286 29.1902 3.38867 29.6196 3.594C30.0582 3.79 30.4269 4.06067 30.7256 4.406C31.0336 4.742 31.2669 5.12933 31.4256 5.568C31.5936 5.99733 31.6776 6.44533 31.6776 6.912C31.6776 7.01467 31.6682 7.13133 31.6496 7.262C31.6402 7.38333 31.6262 7.5 31.6076 7.612H25.4196V6.492H30.8516L30.2356 6.996C30.3196 6.51067 30.2729 6.07667 30.0956 5.694C29.9182 5.31133 29.6569 5.008 29.3116 4.784C28.9662 4.56 28.5742 4.448 28.1356 4.448C27.6969 4.448 27.2956 4.56 26.9316 4.784C26.5676 5.008 26.2829 5.33 26.0776 5.75C25.8816 6.16067 25.8022 6.65067 25.8396 7.22C25.8022 7.77067 25.8862 8.256 26.0916 8.676C26.3062 9.08667 26.6049 9.40867 26.9876 9.642C27.3796 9.866 27.8042 9.978 28.2616 9.978C28.7656 9.978 29.1902 9.86133 29.5356 9.628C29.8809 9.39467 30.1609 9.096 30.3756 8.732L31.4676 9.292C31.3182 9.63733 31.0849 9.95467 30.7676 10.244C30.4596 10.524 30.0909 10.748 29.6616 10.916C29.2416 11.084 28.7702 11.168 28.2476 11.168ZM37.2812 11.168C36.6745 11.168 36.1192 11.0327 35.6152 10.762C35.1205 10.4913 34.7379 10.1087 34.4672 9.614L34.6492 9.39V11H33.3752V0.402H34.6772V5.078L34.4812 4.756C34.7612 4.308 35.1439 3.95333 35.6292 3.692C36.1145 3.42133 36.6699 3.286 37.2952 3.286C38.0045 3.286 38.6392 3.45867 39.1992 3.804C39.7685 4.14933 40.2165 4.62067 40.5432 5.218C40.8699 5.806 41.0332 6.478 41.0332 7.234C41.0332 7.97133 40.8699 8.63867 40.5432 9.236C40.2165 9.83333 39.7685 10.3047 39.1992 10.65C38.6392 10.9953 37.9999 11.168 37.2812 11.168ZM37.1832 9.908C37.6592 9.908 38.0839 9.79133 38.4572 9.558C38.8305 9.32467 39.1199 9.00733 39.3252 8.606C39.5399 8.19533 39.6472 7.738 39.6472 7.234C39.6472 6.71133 39.5399 6.254 39.3252 5.862C39.1199 5.46067 38.8305 5.14333 38.4572 4.91C38.0839 4.66733 37.6592 4.546 37.1832 4.546C36.7072 4.546 36.2779 4.66267 35.8952 4.896C35.5219 5.12933 35.2232 5.45133 34.9992 5.862C34.7845 6.26333 34.6772 6.72067 34.6772 7.234C34.6772 7.738 34.7845 8.19533 34.9992 8.606C35.2232 9.00733 35.5219 9.32467 35.8952 9.558C36.2779 9.79133 36.7072 9.908 37.1832 9.908ZM46.3244 11.168C45.5964 11.168 44.9384 11 44.3504 10.664C43.7624 10.3187 43.2958 9.84733 42.9504 9.25C42.6051 8.65267 42.4324 7.976 42.4324 7.22C42.4324 6.464 42.6004 5.792 42.9364 5.204C43.2818 4.616 43.7484 4.14933 44.3364 3.804C44.9244 3.45867 45.5871 3.286 46.3244 3.286C47.0524 3.286 47.7104 3.45867 48.2984 3.804C48.8864 4.14 49.3484 4.602 49.6844 5.19C50.0298 5.778 50.2024 6.45467 50.2024 7.22C50.2024 7.98533 50.0251 8.66667 49.6704 9.264C49.3158 9.852 48.8444 10.3187 48.2564 10.664C47.6778 11 47.0338 11.168 46.3244 11.168ZM46.3244 9.908C46.7911 9.908 47.2111 9.79133 47.5844 9.558C47.9671 9.32467 48.2658 9.00267 48.4804 8.592C48.7044 8.18133 48.8164 7.724 48.8164 7.22C48.8164 6.70667 48.7044 6.254 48.4804 5.862C48.2658 5.46067 47.9671 5.14333 47.5844 4.91C47.2111 4.66733 46.7911 4.546 46.3244 4.546C45.8484 4.546 45.4191 4.66733 45.0364 4.91C44.6631 5.14333 44.3644 5.46067 44.1404 5.862C43.9164 6.254 43.8044 6.70667 43.8044 7.22C43.8044 7.724 43.9164 8.18133 44.1404 8.592C44.3644 9.00267 44.6631 9.32467 45.0364 9.558C45.4191 9.79133 45.8484 9.908 46.3244 9.908ZM55.4846 11.168C54.7566 11.168 54.0986 11 53.5106 10.664C52.9226 10.3187 52.4559 9.84733 52.1106 9.25C51.7652 8.65267 51.5926 7.976 51.5926 7.22C51.5926 6.464 51.7606 5.792 52.0966 5.204C52.4419 4.616 52.9086 4.14933 53.4966 3.804C54.0846 3.45867 54.7472 3.286 55.4846 3.286C56.2126 3.286 56.8706 3.45867 57.4586 3.804C58.0466 4.14 58.5086 4.602 58.8446 5.19C59.1899 5.778 59.3626 6.45467 59.3626 7.22C59.3626 7.98533 59.1852 8.66667 58.8306 9.264C58.4759 9.852 58.0046 10.3187 57.4166 10.664C56.8379 11 56.1939 11.168 55.4846 11.168ZM55.4846 9.908C55.9512 9.908 56.3712 9.79133 56.7446 9.558C57.1272 9.32467 57.4259 9.00267 57.6406 8.592C57.8646 8.18133 57.9766 7.724 57.9766 7.22C57.9766 6.70667 57.8646 6.254 57.6406 5.862C57.4259 5.46067 57.1272 5.14333 56.7446 4.91C56.3712 4.66733 55.9512 4.546 55.4846 4.546C55.0086 4.546 54.5792 4.66733 54.1966 4.91C53.8232 5.14333 53.5246 5.46067 53.3006 5.862C53.0766 6.254 52.9646 6.70667 52.9646 7.22C52.9646 7.724 53.0766 8.18133 53.3006 8.592C53.5246 9.00267 53.8232 9.32467 54.1966 9.558C54.5792 9.79133 55.0086 9.908 55.4846 9.908ZM61.0607 11V0.402H62.3627V7.668L61.8307 7.542L65.8347 3.454H67.5007L64.6027 6.492L67.6967 11H66.1567L63.3287 6.912L64.1407 6.87L61.9427 9.166L62.3627 8.214V11H61.0607Z" fill="#1875FF"/>
</svg>
