<svg width="50" height="15" viewBox="0 0 50 15" fill="none" xmlns="http://www.w3.org/2000/svg">
    <path d="M5.478 11.168C4.74067 11.168 4.05933 11.0373 3.434 10.776C2.80867 10.5053 2.26733 10.1273 1.81 9.642C1.35267 9.15667 0.993333 8.58733 0.732 7.934C0.48 7.28067 0.354 6.56667 0.354 5.792C0.354 5.008 0.48 4.28933 0.732 3.636C0.984 2.98267 1.33867 2.41333 1.796 1.928C2.25333 1.44267 2.79467 1.06933 3.42 0.807999C4.04533 0.537333 4.72667 0.402 5.464 0.402C6.18267 0.402 6.82667 0.528 7.396 0.78C7.97467 1.032 8.46 1.35867 8.852 1.76C9.25333 2.16133 9.538 2.59067 9.706 3.048L8.474 3.65C8.23133 3.04333 7.85333 2.56267 7.34 2.208C6.82667 1.85333 6.20133 1.676 5.464 1.676C4.736 1.676 4.08733 1.84867 3.518 2.194C2.958 2.53933 2.51933 3.02 2.202 3.636C1.88467 4.252 1.726 4.97067 1.726 5.792C1.726 6.604 1.88467 7.318 2.202 7.934C2.52867 8.55 2.972 9.03067 3.532 9.376C4.10133 9.72133 4.75 9.894 5.478 9.894C6.11267 9.894 6.68667 9.75867 7.2 9.488C7.71333 9.21733 8.11933 8.844 8.418 8.368C8.71667 7.892 8.866 7.34133 8.866 6.716V6.072L9.496 6.66H5.464V5.47H10.252V6.394C10.252 7.122 10.126 7.78 9.874 8.368C9.622 8.956 9.27667 9.46 8.838 9.88C8.39933 10.2907 7.89067 10.608 7.312 10.832C6.73333 11.056 6.122 11.168 5.478 11.168ZM33.8697 14.08C33.3377 14.08 32.843 13.996 32.3857 13.828C31.9377 13.66 31.5503 13.4267 31.2237 13.128C30.9063 12.8387 30.6637 12.498 30.4957 12.106L31.7137 11.546C31.8443 11.9007 32.0917 12.1993 32.4557 12.442C32.829 12.694 33.2957 12.82 33.8557 12.82C34.285 12.82 34.6723 12.736 35.0177 12.568C35.3723 12.4093 35.6523 12.1667 35.8577 11.84C36.063 11.5227 36.1657 11.1353 36.1657 10.678V8.984L36.4037 9.236C36.1423 9.74933 35.7643 10.1413 35.2697 10.412C34.7843 10.6827 34.2477 10.818 33.6597 10.818C32.9503 10.818 32.3157 10.6547 31.7557 10.328C31.1957 9.992 30.757 9.53933 30.4397 8.97C30.1223 8.39133 29.9637 7.752 29.9637 7.052C29.9637 6.34267 30.1223 5.70333 30.4397 5.134C30.757 4.56467 31.191 4.11667 31.7417 3.79C32.3017 3.454 32.9363 3.286 33.6457 3.286C34.2337 3.286 34.7657 3.42133 35.2417 3.692C35.727 3.95333 36.1143 4.31733 36.4037 4.784L36.2077 5.134V3.454H37.4817V10.678C37.4817 11.3313 37.3277 11.9147 37.0197 12.428C36.7117 12.9413 36.2823 13.3427 35.7317 13.632C35.1903 13.9307 34.5697 14.08 33.8697 14.08ZM33.7717 9.558C34.2197 9.558 34.621 9.446 34.9757 9.222C35.3397 8.998 35.629 8.69933 35.8437 8.326C36.0583 7.94333 36.1657 7.51867 36.1657 7.052C36.1657 6.59467 36.0583 6.17467 35.8437 5.792C35.629 5.40933 35.3397 5.106 34.9757 4.882C34.621 4.658 34.2197 4.546 33.7717 4.546C33.3143 4.546 32.899 4.658 32.5257 4.882C32.1523 5.106 31.8583 5.40933 31.6437 5.792C31.4383 6.16533 31.3357 6.58533 31.3357 7.052C31.3357 7.51867 31.4383 7.94333 31.6437 8.326C31.8583 8.69933 32.1477 8.998 32.5117 9.222C32.885 9.446 33.305 9.558 33.7717 9.558Z" fill="#1875FF"/>
    <path d="M15.5354 11.168C14.8074 11.168 14.1494 11 13.5614 10.664C12.9734 10.3187 12.5067 9.84733 12.1614 9.25C11.816 8.65267 11.6434 7.976 11.6434 7.22C11.6434 6.464 11.8114 5.792 12.1474 5.204C12.4927 4.616 12.9594 4.14933 13.5474 3.804C14.1354 3.45867 14.798 3.286 15.5354 3.286C16.2634 3.286 16.9214 3.45867 17.5094 3.804C18.0974 4.14 18.5594 4.602 18.8954 5.19C19.2407 5.778 19.4134 6.45467 19.4134 7.22C19.4134 7.98533 19.236 8.66667 18.8814 9.264C18.5267 9.852 18.0554 10.3187 17.4674 10.664C16.8887 11 16.2447 11.168 15.5354 11.168ZM15.5354 9.908C16.002 9.908 16.422 9.79133 16.7954 9.558C17.178 9.32467 17.4767 9.00267 17.6914 8.592C17.9154 8.18133 18.0274 7.724 18.0274 7.22C18.0274 6.70667 17.9154 6.254 17.6914 5.862C17.4767 5.46067 17.178 5.14333 16.7954 4.91C16.422 4.66733 16.002 4.546 15.5354 4.546C15.0594 4.546 14.63 4.66733 14.2474 4.91C13.874 5.14333 13.5754 5.46067 13.3514 5.862C13.1274 6.254 13.0154 6.70667 13.0154 7.22C13.0154 7.724 13.1274 8.18133 13.3514 8.592C13.5754 9.00267 13.874 9.32467 14.2474 9.558C14.63 9.79133 15.0594 9.908 15.5354 9.908ZM46.2945 11.168C45.5665 11.168 44.9178 10.9953 44.3485 10.65C43.7791 10.3047 43.3311 9.83333 43.0045 9.236C42.6778 8.62933 42.5145 7.95267 42.5145 7.206C42.5145 6.45 42.6731 5.778 42.9905 5.19C43.3171 4.602 43.7558 4.14 44.3065 3.804C44.8665 3.45867 45.4918 3.286 46.1825 3.286C46.7425 3.286 47.2371 3.38867 47.6665 3.594C48.1051 3.79 48.4738 4.06067 48.7725 4.406C49.0805 4.742 49.3138 5.12933 49.4725 5.568C49.6405 5.99733 49.7245 6.44533 49.7245 6.912C49.7245 7.01467 49.7151 7.13133 49.6965 7.262C49.6871 7.38333 49.6731 7.5 49.6545 7.612H43.4665V6.492H48.8985L48.2825 6.996C48.3665 6.51067 48.3198 6.07667 48.1425 5.694C47.9651 5.31133 47.7038 5.008 47.3585 4.784C47.0131 4.56 46.6211 4.448 46.1825 4.448C45.7438 4.448 45.3425 4.56 44.9785 4.784C44.6145 5.008 44.3298 5.33 44.1245 5.75C43.9285 6.16067 43.8491 6.65067 43.8865 7.22C43.8491 7.77067 43.9331 8.256 44.1385 8.676C44.3531 9.08667 44.6518 9.40867 45.0345 9.642C45.4265 9.866 45.8511 9.978 46.3085 9.978C46.8125 9.978 47.2371 9.86133 47.5825 9.628C47.9278 9.39467 48.2078 9.096 48.4225 8.732L49.5145 9.292C49.3651 9.63733 49.1318 9.95467 48.8145 10.244C48.5065 10.524 48.1378 10.748 47.7085 10.916C47.2885 11.084 46.8171 11.168 46.2945 11.168Z" fill="#FF1818"/>
    <path d="M24.6955 11.168C23.9675 11.168 23.3095 11 22.7215 10.664C22.1335 10.3187 21.6668 9.84733 21.3215 9.25C20.9762 8.65267 20.8035 7.976 20.8035 7.22C20.8035 6.464 20.9715 5.792 21.3075 5.204C21.6528 4.616 22.1195 4.14933 22.7075 3.804C23.2955 3.45867 23.9582 3.286 24.6955 3.286C25.4235 3.286 26.0815 3.45867 26.6695 3.804C27.2575 4.14 27.7195 4.602 28.0555 5.19C28.4008 5.778 28.5735 6.45467 28.5735 7.22C28.5735 7.98533 28.3962 8.66667 28.0415 9.264C27.6868 9.852 27.2155 10.3187 26.6275 10.664C26.0488 11 25.4048 11.168 24.6955 11.168ZM24.6955 9.908C25.1622 9.908 25.5822 9.79133 25.9555 9.558C26.3382 9.32467 26.6368 9.00267 26.8515 8.592C27.0755 8.18133 27.1875 7.724 27.1875 7.22C27.1875 6.70667 27.0755 6.254 26.8515 5.862C26.6368 5.46067 26.3382 5.14333 25.9555 4.91C25.5822 4.66733 25.1622 4.546 24.6955 4.546C24.2195 4.546 23.7902 4.66733 23.4075 4.91C23.0342 5.14333 22.7355 5.46067 22.5115 5.862C22.2875 6.254 22.1755 6.70667 22.1755 7.22C22.1755 7.724 22.2875 8.18133 22.5115 8.592C22.7355 9.00267 23.0342 9.32467 23.4075 9.558C23.7902 9.79133 24.2195 9.908 24.6955 9.908Z" fill="#FAFF18"/>
    <path d="M39.5002 11V0.402H40.8022V11H39.5002Z" fill="#2BFF18"/>
</svg>
