<svg width="25" height="24" viewBox="0 0 25 24" fill="none" xmlns="http://www.w3.org/2000/svg">
    <path d="M8.69119 3.15595C7.80475 2.94802 6.88222 2.94802 5.99578 3.15595C4.83479 3.42828 3.92828 4.33479 3.65595 5.49578C3.44802 6.38222 3.44802 7.30475 3.65595 8.19119C3.92828 9.35218 4.83479 10.2587 5.99578 10.531C6.88222 10.739 7.80475 10.739 8.69119 10.531C9.85218 10.2587 10.7587 9.35218 11.031 8.19119C11.239 7.30475 11.239 6.38222 11.031 5.49578C10.7587 4.33479 9.85218 3.42828 8.69119 3.15595Z" fill="#999999"/>
    <path d="M8.69119 13.469C7.80475 13.261 6.88222 13.261 5.99578 13.469C4.83479 13.7413 3.92828 14.6478 3.65595 15.8088C3.44802 16.6952 3.44802 17.6178 3.65595 18.5042C3.92828 19.6652 4.83479 20.5717 5.99578 20.8441C6.88222 21.052 7.80475 21.052 8.69119 20.8441C9.85218 20.5717 10.7587 19.6652 11.031 18.5042C11.239 17.6178 11.239 16.6952 11.031 15.8088C10.7587 14.6478 9.85218 13.7413 8.69119 13.469Z" fill="#999999"/>
    <path d="M19.0042 3.15595C18.1178 2.94802 17.1952 2.94802 16.3088 3.15595C15.1478 3.42828 14.2413 4.33479 13.969 5.49578C13.761 6.38222 13.761 7.30475 13.969 8.19119C14.2413 9.35218 15.1478 10.2587 16.3088 10.531C17.1952 10.739 18.1178 10.739 19.0042 10.531C20.1652 10.2587 21.0717 9.35218 21.3441 8.19119C21.552 7.30475 21.552 6.38222 21.3441 5.49578C21.0717 4.33479 20.1652 3.42828 19.0042 3.15595Z" fill="#999999"/>
    <path d="M19.0042 13.469C18.1178 13.261 17.1952 13.261 16.3088 13.469C15.1478 13.7413 14.2413 14.6478 13.969 15.8088C13.761 16.6952 13.761 17.6178 13.969 18.5042C14.2413 19.6652 15.1478 20.5717 16.3088 20.8441C17.1952 21.052 18.1178 21.052 19.0042 20.8441C20.1652 20.5717 21.0717 19.6652 21.3441 18.5042C21.552 17.6178 21.552 16.6952 21.3441 15.8088C21.0717 14.6478 20.1652 13.7413 19.0042 13.469Z" fill="#999999"/>
</svg>
